<?xml version="1.0" encoding="utf-8"?>
<!-- Generator: Adobe Illustrator 25.4.1, SVG Export Plug-In . SVG Version: 6.00 Build 0)  -->
<svg version="1.1" id="Layer_1" xmlns="http://www.w3.org/2000/svg" xmlns:xlink="http://www.w3.org/1999/xlink" x="0px" y="0px"
	 viewBox="0 0 249.01 321.07" style="enable-background:new 0 0 249.01 321.07;" xml:space="preserve">
<style type="text/css">
	.st0{fill:#FFFFFF;}
	.st1{clip-path:url(#SVGID_00000036210053570198455650000003512082868149375363_);}
	.st2{fill:#262626;}
	.st3{font-family:'Helvetica';}
	.st4{font-size:6.8171px;}
	.st5{font-family:'MyriadPro-Regular';}
	.st6{font-size:8.1713px;}
	.st7{fill:none;stroke:#000000;stroke-miterlimit:8;}
	.st8{clip-path:url(#SVGID_00000105389772155016133910000006017297766255775121_);fill-rule:evenodd;clip-rule:evenodd;}
	.st9{clip-path:url(#SVGID_00000105389772155016133910000006017297766255775121_);}
	.st10{clip-path:url(#SVGID_00000105389772155016133910000006017297766255775121_);fill:none;stroke:#000000;stroke-miterlimit:8;}
	.st11{font-size:12px;}
	.st12{fill:none;stroke:#000000;stroke-miterlimit:10;}
	.st13{fill:none;stroke:#000000;stroke-miterlimit:10;stroke-dasharray:1.7135,4.2837;}
	.st14{fill:none;stroke:#000000;stroke-miterlimit:10;stroke-dasharray:10.2808,4.2837,1.7135,4.2837;}
	.st15{fill:none;stroke:#000000;stroke-miterlimit:10;stroke-dasharray:12,5,2,5;}
	.st16{fill:none;stroke:#000000;stroke-miterlimit:10;stroke-dasharray:4.5495,4.5495;}
	.st17{fill:none;stroke:#000000;stroke-miterlimit:10;stroke-dasharray:4.5495,4.5495,4.5495,4.5495;}
	.st18{fill:none;stroke:#000000;stroke-miterlimit:10;stroke-dasharray:4.8442,4.8442;}
	.st19{font-size:9px;}
	.st20{opacity:0.85;fill:#FFFFFF;}
	.st21{fill:none;stroke:#000000;stroke-width:1.5;stroke-miterlimit:8;}
	.st22{font-size:15px;}
</style>
<rect x="52.57" y="48.82" class="st0" width="126.98" height="160.8"/>
<rect x="52.57" y="48.82" class="st0" width="126.98" height="160.8"/>
<rect x="52.57" y="48.82" class="st0" width="126.98" height="160.8"/>
<g>
	<defs>
		<rect id="SVGID_1_" x="52.57" y="48.82" width="126.98" height="160.8"/>
	</defs>
	<clipPath id="SVGID_00000023258962469648882630000000847191571825302450_">
		<use xlink:href="#SVGID_1_"  style="overflow:visible;"/>
	</clipPath>
	<g style="clip-path:url(#SVGID_00000023258962469648882630000000847191571825302450_);">
		<text transform="matrix(1 0 0 1 29.6118 245.3661)" class="st2 st3 st4">0</text>
	</g>
	<g style="clip-path:url(#SVGID_00000023258962469648882630000000847191571825302450_);">
		<text transform="matrix(1 0 0 1 76.875 245.3661)" class="st2 st3 st4">10</text>
	</g>
	<g style="clip-path:url(#SVGID_00000023258962469648882630000000847191571825302450_);">
		<text transform="matrix(1 0 0 1 126.1826 245.3661)" class="st2 st3 st4">20</text>
	</g>
	<g style="clip-path:url(#SVGID_00000023258962469648882630000000847191571825302450_);">
		<text transform="matrix(1 0 0 1 175.4912 245.3661)" class="st2 st3 st4">30</text>
	</g>
	<g style="clip-path:url(#SVGID_00000023258962469648882630000000847191571825302450_);">
		<text transform="matrix(1 0 0 1 24.833 238.2079)" class="st2 st3 st4">6</text>
	</g>
	<g style="clip-path:url(#SVGID_00000023258962469648882630000000847191571825302450_);">
		<text transform="matrix(1 0 0 1 24.833 212.2616)" class="st2 st3 st4">7</text>
	</g>
	<g style="clip-path:url(#SVGID_00000023258962469648882630000000847191571825302450_);">
		<text transform="matrix(1 0 0 1 24.833 186.3153)" class="st2 st3 st4">8</text>
	</g>
	<g style="clip-path:url(#SVGID_00000023258962469648882630000000847191571825302450_);">
		<text transform="matrix(1 0 0 1 24.833 160.369)" class="st2 st3 st4">9</text>
	</g>
	<g style="clip-path:url(#SVGID_00000023258962469648882630000000847191571825302450_);">
		<text transform="matrix(1 0 0 1 20.7427 134.4232)" class="st2 st3 st4">10</text>
	</g>
	<g style="clip-path:url(#SVGID_00000023258962469648882630000000847191571825302450_);">
		<text transform="matrix(1 0 0 1 20.7427 108.4769)" class="st2 st3 st4">11</text>
	</g>
	<g style="clip-path:url(#SVGID_00000023258962469648882630000000847191571825302450_);">
		<text transform="matrix(1 0 0 1 20.7427 82.5306)" class="st2 st3 st4">12</text>
	</g>
	<g style="clip-path:url(#SVGID_00000023258962469648882630000000847191571825302450_);">
		<text transform="matrix(1 0 0 1 20.7427 56.5843)" class="st2 st3 st4">13</text>
	</g>
	<g style="clip-path:url(#SVGID_00000023258962469648882630000000847191571825302450_);">
		<text transform="matrix(1 0 0 1 20.7427 30.638)" class="st2 st3 st4">14</text>
	</g>
	<g style="clip-path:url(#SVGID_00000023258962469648882630000000847191571825302450_);">
		<text transform="matrix(1 0 0 1 20.7427 4.6917)" class="st2 st3 st4">15</text>
	</g>
	<path style="clip-path:url(#SVGID_00000023258962469648882630000000847191571825302450_);" d="M85.79,92.8
		c0-2.66-2.16-4.82-4.82-4.82c-2.66,0-4.82,2.16-4.82,4.82s2.16,4.82,4.82,4.82C83.63,97.62,85.79,95.46,85.79,92.8"/>
	<path style="clip-path:url(#SVGID_00000023258962469648882630000000847191571825302450_);" d="M135.1,92.8
		c0-2.66-2.16-4.82-4.82-4.82c-2.66,0-4.82,2.16-4.82,4.82s2.16,4.82,4.82,4.82C132.94,97.62,135.1,95.46,135.1,92.8"/>
	<path style="clip-path:url(#SVGID_00000023258962469648882630000000847191571825302450_);" d="M85.79,110.78
		c0-2.66-2.16-4.82-4.82-4.82c-2.66,0-4.82,2.16-4.82,4.82s2.16,4.82,4.82,4.82C83.63,115.6,85.79,113.44,85.79,110.78"/>
	<polygon style="clip-path:url(#SVGID_00000023258962469648882630000000847191571825302450_);" points="105.62,86.37 100.06,96.01 
		111.19,96.01 	"/>
	<polygon style="clip-path:url(#SVGID_00000023258962469648882630000000847191571825302450_);" points="105.62,104.35 
		100.06,113.99 111.19,113.99 	"/>
	<polygon style="clip-path:url(#SVGID_00000023258962469648882630000000847191571825302450_);" points="105.62,114.88 
		100.06,124.52 111.19,124.52 	"/>
	<polygon style="clip-path:url(#SVGID_00000023258962469648882630000000847191571825302450_);" points="130.28,114.88 
		124.71,124.52 135.84,124.52 	"/>
	
		<rect x="126.19" y="106.68" style="clip-path:url(#SVGID_00000023258962469648882630000000847191571825302450_);" width="8.18" height="8.18"/>
	
		<rect x="76.88" y="117.22" style="clip-path:url(#SVGID_00000023258962469648882630000000847191571825302450_);" width="8.18" height="8.18"/>
	
		<rect x="76.88" y="148.45" style="clip-path:url(#SVGID_00000023258962469648882630000000847191571825302450_);" width="8.18" height="8.18"/>
	
		<rect x="101.53" y="148.45" style="clip-path:url(#SVGID_00000023258962469648882630000000847191571825302450_);" width="8.18" height="8.18"/>
	
		<rect x="126.19" y="148.45" style="clip-path:url(#SVGID_00000023258962469648882630000000847191571825302450_);" width="8.18" height="8.18"/>
	<g style="clip-path:url(#SVGID_00000023258962469648882630000000847191571825302450_);">
		<text transform="matrix(1 0 0 1 103.4861 95.3351)" class="st0 st5 st6">2</text>
	</g>
	<g style="clip-path:url(#SVGID_00000023258962469648882630000000847191571825302450_);">
		<text transform="matrix(1 0 0 1 103.8546 113.2885)" class="st0 st5 st6">1</text>
	</g>
	<g style="clip-path:url(#SVGID_00000023258962469648882630000000847191571825302450_);">
		<text transform="matrix(1 0 0 1 103.8538 123.7559)" class="st0 st5 st6">1</text>
	</g>
	<g style="clip-path:url(#SVGID_00000023258962469648882630000000847191571825302450_);">
		<text transform="matrix(1 0 0 1 128.3731 123.7559)" class="st0 st5 st6">1</text>
	</g>
</g>
<line class="st7" x1="31.52" y1="80.13" x2="38.93" y2="80.13"/>
<line class="st7" x1="31.52" y1="106.09" x2="38.93" y2="106.09"/>
<line class="st7" x1="31.52" y1="131.84" x2="38.93" y2="131.84"/>
<line class="st7" x1="31.52" y1="157.8" x2="38.93" y2="157.8"/>
<line class="st7" x1="31.52" y1="183.76" x2="38.93" y2="183.76"/>
<line class="st7" x1="79.96" y1="202.31" x2="79.96" y2="209.72"/>
<line class="st7" x1="130.36" y1="202.31" x2="130.36" y2="209.72"/>
<line class="st7" x1="54.86" y1="202.31" x2="54.86" y2="209.72"/>
<line class="st7" x1="105.26" y1="202.31" x2="105.26" y2="209.72"/>
<line class="st7" x1="155.66" y1="202.31" x2="155.66" y2="209.72"/>
<line class="st7" x1="80.17" y1="7.6" x2="80.17" y2="15.01"/>
<line class="st7" x1="130.57" y1="7.6" x2="130.57" y2="15.01"/>
<line class="st7" x1="54.86" y1="7.6" x2="54.86" y2="15.01"/>
<line class="st7" x1="105.26" y1="7.6" x2="105.26" y2="15.01"/>
<line class="st7" x1="155.66" y1="7.6" x2="155.66" y2="15.01"/>
<line class="st7" x1="172.46" y1="80.13" x2="179.87" y2="80.13"/>
<line class="st7" x1="172.46" y1="106.09" x2="179.87" y2="106.09"/>
<line class="st7" x1="172.46" y1="132.06" x2="179.87" y2="132.06"/>
<line class="st7" x1="172.46" y1="183.76" x2="179.87" y2="183.76"/>
<g>
	<defs>
		<rect id="SVGID_00000010274056218887224120000004653214932329826972_" width="183.64" height="318.66"/>
	</defs>
	<clipPath id="SVGID_00000175322270525576412540000012004346679869671346_">
		<use xlink:href="#SVGID_00000010274056218887224120000004653214932329826972_"  style="overflow:visible;"/>
	</clipPath>
	
		<path style="clip-path:url(#SVGID_00000175322270525576412540000012004346679869671346_);fill-rule:evenodd;clip-rule:evenodd;" d="
		M18.92,264.68c0-3.37,2.74-6.11,6.11-6.11s6.11,2.73,6.11,6.11c0,3.37-2.74,6.11-6.11,6.11S18.92,268.05,18.92,264.68"/>
	
		<polygon style="clip-path:url(#SVGID_00000175322270525576412540000012004346679869671346_);fill-rule:evenodd;clip-rule:evenodd;" points="
		18.05,291.08 25.14,278.86 32.23,291.08 	"/>
	
		<rect x="18.92" y="300.68" style="clip-path:url(#SVGID_00000175322270525576412540000012004346679869671346_);" width="12.22" height="12.22"/>
	
		<rect x="10.3" y="255" style="clip-path:url(#SVGID_00000175322270525576412540000012004346679869671346_);fill:none;stroke:#000000;stroke-miterlimit:8;" width="172.48" height="63.16"/>
	
		<path style="clip-path:url(#SVGID_00000175322270525576412540000012004346679869671346_);fill-rule:evenodd;clip-rule:evenodd;" d="
		M75.48,37.58c0-2.59,2.1-4.69,4.69-4.69c2.59,0,4.69,2.1,4.69,4.69s-2.1,4.69-4.69,4.69C77.58,42.27,75.48,40.17,75.48,37.58"/>
	
		<path style="clip-path:url(#SVGID_00000175322270525576412540000012004346679869671346_);fill-rule:evenodd;clip-rule:evenodd;" d="
		M100.79,37.58c0-2.59,2.1-4.69,4.69-4.69c2.59,0,4.69,2.1,4.69,4.69s-2.1,4.69-4.69,4.69C102.89,42.27,100.79,40.17,100.79,37.58"
		/>
	
		<path style="clip-path:url(#SVGID_00000175322270525576412540000012004346679869671346_);fill-rule:evenodd;clip-rule:evenodd;" d="
		M126.1,37.58c0-2.59,2.1-4.69,4.69-4.69c2.59,0,4.69,2.1,4.69,4.69s-2.1,4.69-4.69,4.69C128.2,42.27,126.1,40.17,126.1,37.58"/>
	
		<path style="clip-path:url(#SVGID_00000175322270525576412540000012004346679869671346_);fill-rule:evenodd;clip-rule:evenodd;" d="
		M151.41,37.58c0-2.59,2.1-4.69,4.69-4.69c2.59,0,4.69,2.1,4.69,4.69s-2.1,4.69-4.69,4.69C153.51,42.27,151.41,40.17,151.41,37.58"
		/>
	
		<path style="clip-path:url(#SVGID_00000175322270525576412540000012004346679869671346_);fill-rule:evenodd;clip-rule:evenodd;" d="
		M50.39,37.58c0-2.59,2.1-4.69,4.69-4.69c2.59,0,4.69,2.1,4.69,4.69s-2.1,4.69-4.69,4.69C52.49,42.27,50.39,40.17,50.39,37.58"/>
	
		<line style="clip-path:url(#SVGID_00000175322270525576412540000012004346679869671346_);fill:none;stroke:#000000;stroke-miterlimit:8;" x1="31.52" y1="55.04" x2="38.93" y2="55.04"/>
	
		<line style="clip-path:url(#SVGID_00000175322270525576412540000012004346679869671346_);fill:none;stroke:#000000;stroke-miterlimit:8;" x1="172.25" y1="55.26" x2="179.65" y2="55.26"/>
	
		<line style="clip-path:url(#SVGID_00000175322270525576412540000012004346679869671346_);fill:none;stroke:#000000;stroke-miterlimit:8;" x1="31.96" y1="29.85" x2="39.36" y2="29.85"/>
	
		<line style="clip-path:url(#SVGID_00000175322270525576412540000012004346679869671346_);fill:none;stroke:#000000;stroke-miterlimit:8;" x1="172.25" y1="29.85" x2="179.65" y2="29.85"/>
	<g style="clip-path:url(#SVGID_00000175322270525576412540000012004346679869671346_);">
		<text transform="matrix(1 0 0 1 21.5566 235.8856)" class="st3 st11">Internal heating rate [Non-dim]</text>
	</g>
	<g style="clip-path:url(#SVGID_00000175322270525576412540000012004346679869671346_);">
		<text transform="matrix(0 -1 1 0 10.3037 182.4344)" class="st3 st11">Activation energy [Non-dim]</text>
	</g>
</g>
<text transform="matrix(1 0 0 1 22.1494 212.4637)" class="st3 st11">7</text>
<text transform="matrix(1 0 0 1 22.1494 185.7997)" class="st3 st11">8</text>
<text transform="matrix(1 0 0 1 22.1494 160.5038)" class="st3 st11">9</text>
<text transform="matrix(1 0 0 1 15.4775 134.5599)" class="st3 st11">10</text>
<text transform="matrix(1 0 0 1 16.3652 108.7357)"><tspan x="0" y="0" class="st3 st11">1</tspan><tspan x="5.79" y="0" class="st3 st11">1</tspan></text>
<text transform="matrix(1 0 0 1 15.4775 82.5516)" class="st3 st11">12</text>
<text transform="matrix(1 0 0 1 15.4775 56.7396)" class="st3 st11">13</text>
<text transform="matrix(1 0 0 1 15.4775 32.8958)" class="st3 st11">14</text>
<text transform="matrix(1 0 0 1 73.2817 221.6385)" class="st3 st11">10</text>
<text transform="matrix(1 0 0 1 51.5259 221.6385)" class="st3 st11">5</text>
<text transform="matrix(1 0 0 1 98.5898 221.6385)" class="st3 st11">15</text>
<text transform="matrix(1 0 0 1 123.6816 221.6385)" class="st3 st11">20</text>
<text transform="matrix(1 0 0 1 149.4219 221.6385)" class="st3 st11">25</text>
<text transform="matrix(1 0 0 1 38.9136 269.0262)"><tspan x="0" y="0" class="st3 st11">Mobile lid - Mobile</tspan><tspan x="96.7" y="0" class="st3 st11"> </tspan><tspan x="100.05" y="0" class="st3 st11">lid</tspan></text>
<text transform="matrix(1 0 0 1 38.9136 289.0789)" class="st3 st11">Stagnant lid - Mobile lid</text>
<text transform="matrix(1 0 0 1 38.9136 310.8944)" class="st3 st11">Stagnant lid - Stagnant lid</text>
<g>
	<g>
		<polyline class="st12" points="110.91,87.22 105.62,84.37 110.91,87.22 		"/>
		<line class="st13" x1="114.68" y1="89.25" x2="118.07" y2="91.07"/>
		<line class="st14" x1="119.96" y1="92.09" x2="172.39" y2="120.31"/>
		<polyline class="st12" points="174.27,121.33 179.56,124.17 174.27,121.33 		"/>
		<line class="st13" x1="170.5" y1="119.3" x2="167.11" y2="117.47"/>
		<line class="st14" x1="165.22" y1="116.45" x2="112.79" y2="88.23"/>
	</g>
</g>
<path class="st15" d="M370.81,18.72"/>
<g>
	<g>
		<line class="st12" x1="80.97" y1="115.6" x2="83.22" y2="116.68"/>
		<line class="st16" x1="87.31" y1="118.67" x2="93.46" y2="121.64"/>
		<line class="st17" x1="95.5" y1="122.63" x2="175.37" y2="161.26"/>
		<line class="st12" x1="177.41" y1="162.25" x2="179.66" y2="163.34"/>
	</g>
</g>
<line class="st15" x1="105.62" y1="84.37" x2="79.46" y2="117.22"/>
<g>
	<g>
		<line class="st12" x1="31.96" y1="176.17" x2="33.52" y2="174.22"/>
		<line class="st18" x1="36.55" y1="170.44" x2="77.48" y2="119.43"/>
		<line class="st12" x1="79" y1="117.55" x2="80.56" y2="115.6"/>
	</g>
</g>
<text transform="matrix(1 0 0 1 184.7794 118.4446)"><tspan x="0" y="0" class="st3 st19">Regime</tspan><tspan x="0" y="10.8" class="st3 st19">boundary</tspan><tspan x="0" y="21.6" class="st3 st19">w/o continents</tspan></text>
<rect x="138.35" y="140.12" class="st20" width="40.52" height="26.42"/>
<rect x="31.96" y="7.74" class="st21" width="147.71" height="201.99"/>
<line class="st7" x1="172.46" y1="158.02" x2="179.87" y2="158.02"/>
<text transform="matrix(1 0 0 1 153.5158 157.8009)" class="st5 st22">?</text>
<text transform="matrix(1 0 0 1 184.779 160.4988)"><tspan x="0" y="0" class="st3 st19">Regime</tspan><tspan x="0" y="10.8" class="st3 st19">boundary</tspan><tspan x="0" y="21.6" class="st3 st19">with continents</tspan></text>
</svg>
